<?xml version="1.0" encoding="UTF-8"?>
<svg version="1.1" xmlns="http://www.w3.org/2000/svg" width="512" height="512">
<path d="M0 0 C3.54391166 2.80838282 6.80116527 5.80658702 10 9 C11.04800781 10.03060547 11.04800781 10.03060547 12.1171875 11.08203125 C28.78688103 28.56250754 33.78541278 51.88911684 33.375 75.33203125 C31.88369288 112.08742569 12.79197017 148.59911652 -13 174 C-12.12601563 174.17539307 -11.25203125 174.35078613 -10.3515625 174.53149414 C74.23040123 191.63739836 74.23040123 191.63739836 98.61328125 226.29296875 C104.88604675 236.08346379 108.10914884 246.74034366 108.14717102 258.33192444 C108.15084771 259.06024662 108.1545244 259.7885688 108.1583125 260.53896135 C108.16930614 262.97397951 108.1731857 265.40895493 108.17700195 267.84399414 C108.18326953 269.59191522 108.18991659 271.33983498 108.19691467 273.0877533 C108.21791041 278.82021158 108.22830812 284.55267002 108.23828125 290.28515625 C108.24232952 292.25911409 108.24644646 294.23307179 108.25063133 296.20702934 C108.26966767 305.47507853 108.28390586 314.74311979 108.2922433 324.01118475 C108.30203116 334.71455361 108.32839747 345.41771651 108.36874419 356.12101275 C108.39886125 364.39372088 108.4137077 372.66636977 108.41702431 380.93913168 C108.41937848 385.88119144 108.42838752 390.82303077 108.45348549 395.76503181 C108.47669622 400.40998891 108.48102784 405.05457927 108.47072411 409.69957924 C108.47022704 411.40561388 108.47659763 413.11166618 108.49028015 414.81764603 C108.50789656 417.14389433 108.50094509 419.46881147 108.48774719 421.7950592 C108.49013555 423.09751115 108.4925239 424.39996309 108.49498463 425.74188328 C107.90055681 429.65456079 107.05191882 430.57436468 104 433 C101.53290367 433.50139666 101.53290367 433.50139666 98.70883179 433.50336456 C97.63044855 433.51379555 96.55206532 433.52422654 95.4410038 433.53497362 C94.25697157 433.52605073 93.07293934 433.51712785 91.85302734 433.50793457 C89.965533 433.51729451 89.965533 433.51729451 88.03990746 433.52684355 C84.5448379 433.54357051 81.05020417 433.5352756 77.55513287 433.52289867 C73.78682664 433.51386411 70.0185964 433.52780995 66.25030518 433.53881836 C58.86732193 433.5566253 51.48450114 433.55275397 44.10151148 433.5411678 C38.10238974 433.53214227 32.10331359 433.53090565 26.10418701 433.53526306 C25.2510726 433.53587599 24.39795819 433.53648893 23.51899183 433.53712043 C21.78602488 433.5383993 20.05305794 433.53969616 18.32009101 433.5410108 C2.06168087 433.55242296 -14.19663913 433.53929293 -30.45503449 433.51780933 C-44.41212544 433.49993776 -58.36908333 433.50304169 -72.32617188 433.52148438 C-88.52552927 433.54287987 -104.72480762 433.55132427 -120.92417717 433.53903532 C-122.6508471 433.53776109 -124.37751705 433.53650361 -126.10418701 433.53526306 C-126.95379017 433.53464596 -127.80339334 433.53402886 -128.67874205 433.53339306 C-134.6721795 433.52993618 -140.66556689 433.53577574 -146.65899658 433.54518127 C-153.96084265 433.55638798 -161.26251667 433.55338932 -168.56434298 433.5320583 C-172.29145307 433.52152984 -176.0182761 433.51745628 -179.74538422 433.53065491 C-183.78151631 433.54473194 -187.81692059 433.52794932 -191.85302734 433.50793457 C-193.03705957 433.51685746 -194.2210918 433.52578034 -195.4410038 433.53497362 C-197.05857865 433.51932714 -197.05857865 433.51932714 -198.70883179 433.50336456 C-200.10674737 433.50239045 -200.10674737 433.50239045 -201.53290367 433.50139666 C-204.78157432 432.8411579 -205.97862228 431.57978679 -208 429 C-208.50336456 425.76702309 -208.50336456 425.76702309 -208.50793457 421.85562134 C-208.51729451 420.77500319 -208.51729451 420.77500319 -208.52684355 419.67255437 C-208.54280338 417.25744459 -208.53015784 414.84334 -208.51757812 412.42822266 C-208.52299842 410.69666963 -208.53012056 408.96512121 -208.53881836 407.23358154 C-208.55707929 402.52630232 -208.5499692 397.8193732 -208.53730202 393.11208773 C-208.5271725 388.17785481 -208.53656907 383.24365182 -208.54284668 378.30941772 C-208.55013005 370.01205069 -208.54052444 361.7148259 -208.52148438 353.41748047 C-208.49978599 343.85181176 -208.50671286 334.28648503 -208.52879 324.72082484 C-208.54701022 316.49466154 -208.54946795 308.26860059 -208.53903532 300.04242361 C-208.5328274 295.1358369 -208.53188838 290.22941017 -208.54518127 285.32283401 C-208.55683315 280.698326 -208.54854556 276.07425258 -208.52560425 271.44979095 C-208.52036349 269.76249026 -208.52175033 268.07515231 -208.53065491 266.38786697 C-208.62414712 246.85368894 -203.74523823 229.9532368 -189.77734375 215.74609375 C-188.86082031 214.83988281 -187.94429687 213.93367187 -187 213 C-185.91912109 211.90365234 -185.91912109 211.90365234 -184.81640625 210.78515625 C-159.35681172 186.4806284 -120.11998899 180.64659071 -87 174 C-87.74620605 173.2668457 -88.49241211 172.53369141 -89.26123047 171.77832031 C-90.25503501 170.79507568 -91.2486788 169.81166856 -92.2421875 168.828125 C-92.97731567 168.10713623 -92.97731567 168.10713623 -93.72729492 167.37158203 C-112.52597404 148.7140106 -123.4130628 122.19503479 -130 97 C-130.3403125 95.77539062 -130.680625 94.55078125 -131.03125 93.2890625 C-136.79419844 69.54358049 -133.48747938 43.82177729 -121.04858398 22.79418945 C-109.1744034 3.61964471 -91.3399636 -7.64267637 -69.66796875 -13.421875 C-45.62618354 -18.63151513 -20.31673954 -13.87892495 0 0 Z M-100 24 C-107.31413077 32.60200097 -112.67591759 41.68257985 -114 53 C-71.85077642 64.34441869 -27.12530398 65.9431944 15 53 C9.19242175 33.42504508 -1.5959772 18.35843283 -19.75 8.5078125 C-22.46394542 7.2048103 -25.18727547 6.07151411 -28 5 C-28.77988281 4.6803125 -29.55976563 4.360625 -30.36328125 4.03125 C-55.50540587 -4.63015178 -82.49924114 5.44618688 -100 24 Z M-116 70 C-117.79903474 97.88503842 -102.47644602 130.13560571 -85 151 C-84.44183594 151.71929687 -83.88367188 152.43859375 -83.30859375 153.1796875 C-75.51222609 162.83591154 -64.91856182 170.54138797 -52.4765625 172.37109375 C-41.47743954 172.9436033 -33.06295362 167.9519167 -25 161 C-23.989375 160.236875 -22.97875 159.47375 -21.9375 158.6875 C-1.31603476 139.82105308 12.62815121 107.44803222 16 80 C16.08449943 76.66410965 16.06796255 73.33603804 16 70 C14.98184204 70.21148682 14.98184204 70.21148682 13.94311523 70.42724609 C-11.6071543 75.70813972 -11.6071543 75.70813972 -24 77 C-24.95003906 77.11085938 -25.90007812 77.22171875 -26.87890625 77.3359375 C-53.53164369 79.96217261 -79.86854883 77.20526896 -106 72 C-107.41853271 71.71769531 -107.41853271 71.71769531 -108.86572266 71.4296875 C-111.24417944 70.9549156 -113.62227241 70.47840833 -116 70 Z M-121 199 C-121.33 199.66 -121.66 200.32 -122 201 C-121.2789098 203.00752262 -121.2789098 203.00752262 -120.078125 205.2265625 C-119.6351709 206.08588379 -119.1922168 206.94520508 -118.73583984 207.83056641 C-118.2455127 208.75272949 -117.75518555 209.67489258 -117.25 210.625 C-116.75064941 211.56907715 -116.25129883 212.5131543 -115.73681641 213.48583984 C-106.66461971 230.31876172 -95.02745442 245.04201312 -82 259 C-81.24203125 259.81210937 -80.4840625 260.62421875 -79.703125 261.4609375 C-55.9660447 286.05131154 -20.78616584 307.53890056 13 314 C13.99 314 14.98 314 16 314 C16.433125 312.88625 16.86625 311.7725 17.3125 310.625 C19 307 19 307 22 305 C25.2835819 304.65068278 27.26691325 304.57951177 30.15896988 306.23835468 C32 308 32 308 32.50780869 310.07143688 C32.51149586 310.87247499 32.51518303 311.67351309 32.51898193 312.49882507 C32.53289474 313.42009186 32.54680756 314.34135864 32.56114197 315.2905426 C32.5561116 316.29898727 32.55108124 317.30743195 32.54589844 318.34643555 C32.55623611 319.41001282 32.56657379 320.47359009 32.57722473 321.56939697 C32.60677011 325.09198997 32.60815442 328.61401131 32.609375 332.13671875 C32.62434866 334.57624923 32.64107407 337.01576953 32.65948486 339.45527649 C32.70326163 345.88160657 32.72318047 352.30779989 32.73822021 358.73425293 C32.76118734 366.44192653 32.81362868 374.14944852 32.86116028 381.85700226 C32.93008606 393.57137456 32.96144582 405.2853109 33 417 C52.14 417 71.28 417 91 417 C91.09045368 395.97195409 91.16407109 374.94406681 91.20724869 353.91587543 C91.22783374 344.15112126 91.25587639 334.38649696 91.30175781 324.62182617 C91.3417502 316.10639056 91.36746227 307.59104905 91.37635398 299.07552212 C91.38154781 294.57070488 91.39366969 290.06615676 91.42292023 285.56142616 C91.45028582 281.31212999 91.4584028 277.06321107 91.45243073 272.81383514 C91.45352159 271.26315694 91.46134874 269.71246471 91.4768219 268.16186333 C91.58873091 256.35756079 90.36961753 244.99217095 83.5 235 C82.9328125 234.154375 82.365625 233.30875 81.78125 232.4375 C62.07788052 205.4749944 18.15973234 196.29651413 -13.19873047 191.40673828 C-47.73439242 186.39223481 -87.84523576 186.79682444 -121 199 Z M-149.9375 209.5625 C-151.45053711 210.18995117 -151.45053711 210.18995117 -152.99414062 210.83007812 C-162.44534382 214.8771162 -170.84721653 219.59119592 -177 228 C-164.02726455 259.34926747 -147.40475241 286.17218986 -122.25 309.375 C-121.70029541 309.88248779 -121.15059082 310.38997559 -120.58422852 310.9128418 C-117.72155727 313.52398307 -114.78850671 315.93207579 -111.6875 318.25 C-108.92171163 321.08010903 -108.55497971 321.50124899 -108.375 325.1875 C-109 329 -109 329 -110 331 C-113.35726568 332.67863284 -116.41103596 332.77599223 -120 332 C-123.02609195 330.39902149 -125.45159277 328.26997015 -128 326 C-128.73734375 325.36964844 -129.4746875 324.73929687 -130.234375 324.08984375 C-154.71189928 302.69200798 -174.1750675 276.98344398 -187 247 C-187.66 247 -188.32 247 -189 247 C-190.55873943 251.84353451 -191.24843041 255.89287925 -191.24050903 261.02989197 C-191.24222107 261.69988724 -191.24393311 262.36988251 -191.24569702 263.06018066 C-191.24898453 265.29275447 -191.23799817 267.52502238 -191.22705078 269.75756836 C-191.22643761 271.39042686 -191.22670594 273.02328588 -191.2277813 274.65614414 C-191.22823162 279.01705711 -191.21666502 283.37785966 -191.20256042 287.73874664 C-191.19114539 291.83531531 -191.19063282 295.93185753 -191.18920898 300.02844238 C-191.17872677 311.9981428 -191.15080435 323.96782281 -191.125 335.9375 C-191.08375 362.688125 -191.0425 389.43875 -191 417 C-122.69 417 -54.38 417 16 417 C16 388.95 16 360.9 16 332 C6.43 329.03 -3.14 326.06 -13 323 C-44.25740791 310.19934724 -70.131779 293.868221 -94 270 C-95.15048828 268.90171875 -95.15048828 268.90171875 -96.32421875 267.78125 C-109.82046591 254.75346762 -120.26330828 238.94163992 -129.375 222.625 C-129.77976563 221.90030518 -130.18453125 221.17561035 -130.6015625 220.42895508 C-133.35393968 215.40299966 -135.74690175 210.26752442 -138 205 C-141.79940714 205 -146.49503238 208.09323185 -149.9375 209.5625 Z " fill="#000000" transform="translate(306,47)"/>
</svg>
