<?xml version="1.0" encoding="UTF-8"?>
<svg version="1.1" xmlns="http://www.w3.org/2000/svg" width="512" height="512">
<path d="M0 0 C1.73822481 0.45917046 3.47679586 0.9170319 5.21568298 1.37368774 C9.89549109 2.60657412 14.57029009 3.8575391 19.24436951 5.11194229 C24.18057689 6.43326614 29.12128643 7.73754116 34.06152344 9.04370117 C43.2122103 11.46569817 52.35898511 13.90211318 61.50416374 16.34481716 C70.60977589 18.77644426 79.71901152 21.19428515 88.82917213 23.60880661 C99.4848755 26.43300605 110.13983002 29.25993897 120.79077148 32.10205078 C136.06671374 36.17786485 151.34613248 40.23832517 166.6416626 44.24010658 C171.40181633 45.48614153 176.16101073 46.7358381 180.92029572 47.98518658 C185.37723099 49.15452634 189.83582714 50.31723252 194.29582405 51.47483635 C197.0219339 52.1840756 199.74636156 52.89961454 202.47037888 53.61684418 C204.30704822 54.09834906 206.14575279 54.57207022 207.98452759 55.04547119 C225.97219279 59.80034469 225.97219279 59.80034469 231.35546875 67.70703125 C232.40720991 70.86225472 232.48395089 73.07734678 232.48968983 76.39052486 C232.49414767 77.58186911 232.49860551 78.77321335 232.50319844 80.00065893 C232.5029219 81.97367848 232.5029219 81.97367848 232.50263977 83.98655701 C232.50593849 85.39285336 232.50966407 86.79914877 232.51378125 88.20544297 C232.52380802 92.07888057 232.52751911 95.95230268 232.53017056 99.82575142 C232.53407146 103.99964503 232.54364976 108.17352634 232.55238342 112.34741211 C232.57215111 122.43006024 232.5822132 132.51270938 232.59111121 142.59537205 C232.59549252 147.34023978 232.60085964 152.08510638 232.60610008 156.82997322 C232.62311061 172.59625104 232.63760663 188.36252816 232.64484882 204.12881374 C232.64675879 208.22072284 232.64867912 212.31263194 232.65063477 216.40454102 C232.65111851 217.42159491 232.65160225 218.4386488 232.65210065 219.4865225 C232.66040793 235.97653991 232.6857574 252.46648494 232.71821544 268.95647072 C232.7512467 285.87513214 232.76929391 302.79375672 232.77249306 319.71245056 C232.77466152 329.21634508 232.7834594 338.72013396 232.80895424 348.22399712 C232.83060736 356.31452132 232.83873824 364.40491424 232.82898746 372.49546414 C232.82442739 376.62560163 232.82642741 380.75546793 232.8457489 384.88556862 C232.86327206 388.66376063 232.8624722 392.44148144 232.84685161 396.21967769 C232.84332222 398.23969287 232.85958224 400.25971238 232.87645608 402.27966017 C232.86787519 403.47361215 232.8592943 404.66756414 232.85045338 405.8976965 C232.85143019 406.93042846 232.85240699 407.96316042 232.8534134 409.02718729 C232.22141044 412.42850772 231.03211505 413.58171518 228.35546875 415.70703125 C225.46073914 416.83052063 225.46073914 416.83052063 222.0300293 417.72387695 C221.08000219 417.97735948 221.08000219 417.97735948 220.11078262 418.23596287 C217.99112577 418.79800081 215.86690867 419.34026197 213.7421875 419.8828125 C212.21684835 420.28313599 210.69183667 420.684709 209.16712952 421.08743286 C205.87098859 421.95523567 202.57273718 422.81430495 199.27258301 423.66671753 C193.96170404 425.03854684 188.65586217 426.42919424 183.35058594 427.82250977 C176.79467336 429.54283276 170.23752349 431.25829397 163.67873192 432.96760845 C147.17218563 437.26946556 130.68268542 441.63509494 114.19373512 446.00381374 C107.8954478 447.67202745 101.59554754 449.33405022 95.29492188 450.9934082 C77.41609066 455.70408649 59.54905974 460.45344073 41.70349503 465.28877449 C35.93166457 466.85075196 30.15744824 468.40388999 24.38318825 469.95685863 C18.89787083 471.43333271 13.41688274 472.92466774 7.93868923 474.42734432 C4.56337848 475.34937081 1.18434541 476.25710956 -2.19585991 477.16100883 C-3.75332549 477.5806523 -5.30920879 478.0062227 -6.8632679 478.43831062 C-21.57783494 482.5240478 -32.20881242 480.53759479 -46.71875 476.60546875 C-48.3252366 476.17638037 -49.93191646 475.74801502 -51.53877258 475.3203125 C-54.99116724 474.3998504 -58.44223552 473.47462467 -61.89233398 472.54559326 C-67.42422354 471.05607391 -72.95891956 469.57718164 -78.49414062 468.10009766 C-84.30819186 466.54815382 -90.12207963 464.99561483 -95.93502808 463.43954468 C-113.78199093 458.66264361 -131.64331099 453.9409648 -149.50764656 449.22952175 C-155.82570771 447.5629198 -162.14265629 445.8921515 -168.45898438 444.21899414 C-172.04817152 443.26837093 -175.63736383 442.31776719 -179.2265625 441.3671875 C-180.10891697 441.13348009 -180.99127144 440.89977268 -181.90036392 440.65898323 C-192.74826107 437.78644781 -203.60011033 434.92968182 -214.4579792 432.09506226 C-221.56709355 430.23896229 -228.67393293 428.37433679 -235.77915764 426.50340271 C-240.74562241 425.19633264 -245.71491846 423.90087508 -250.6867094 422.61422253 C-253.72124125 421.82582868 -256.75267964 421.02604103 -259.78333473 420.22288704 C-261.18061966 419.85507344 -262.57916241 419.49200008 -263.97900963 419.13406181 C-265.88473028 418.64610287 -267.78566273 418.13955597 -269.6862793 417.63208008 C-270.74735397 417.35503738 -271.80842865 417.07799469 -272.9016571 416.79255676 C-276.08484977 415.53276989 -277.49332818 414.36076223 -279.64453125 411.70703125 C-280.14592791 409.03178996 -280.14592791 409.03178996 -280.14789581 405.90886974 C-280.1583268 404.71738455 -280.16875779 403.52589936 -280.17950487 402.29830855 C-280.17058198 400.98792139 -280.1616591 399.67753422 -280.15246582 398.32743835 C-280.15707353 396.92241148 -280.16342557 395.51738941 -280.1713748 394.11237746 C-280.18811011 390.24686179 -280.17980287 386.3817399 -280.16742992 382.5162226 C-280.15839857 378.34908512 -280.17233978 374.18201648 -280.18334961 370.01489258 C-280.20116136 361.84884491 -280.19728265 353.68294409 -280.18569905 345.51689061 C-280.17667357 338.87992399 -280.17543689 332.24299859 -280.17979431 325.6060276 C-280.18040724 324.66219244 -280.18102018 323.71835728 -280.18165168 322.74592105 C-280.18293056 320.82863029 -280.18422742 318.91133955 -280.18554205 316.99404881 C-280.1969561 299.00299886 -280.18382218 281.01203034 -280.16234058 263.02099375 C-280.14447755 247.58272127 -280.14756555 232.14456912 -280.16601562 216.70629883 C-280.18742277 198.78524808 -280.19584822 180.86426883 -280.18356657 162.94320709 C-280.18229236 161.03196547 -280.18103488 159.12072383 -280.17979431 157.20948219 C-280.17917721 156.26908553 -280.17856011 155.32868886 -280.17792431 154.35979533 C-280.17447029 147.7320762 -280.18030105 141.1044024 -280.18971252 134.47669029 C-280.20093253 126.39759888 -280.1978928 118.31866291 -280.17658955 110.2395893 C-280.16607778 106.11718986 -280.16195923 101.99504957 -280.17518616 97.87265205 C-280.18711399 94.098018 -280.18054146 90.32388305 -280.15927595 86.54929421 C-280.15269792 84.53852365 -280.16574279 82.52771839 -280.17950487 80.51698416 C-280.12021397 73.69998154 -279.82477052 69.2021165 -275.64453125 63.70703125 C-272.374925 60.55094294 -269.58075502 59.09117929 -265.21435547 57.93774414 C-264.12913605 57.64451767 -263.04391663 57.3512912 -261.92581177 57.04917908 C-260.73728607 56.74162186 -259.54876038 56.43406464 -258.32421875 56.1171875 C-257.05327362 55.7776857 -255.78232849 55.4381839 -254.47286987 55.08839417 C-251.68101087 54.34276054 -248.88720365 53.60510517 -246.0916748 52.87335205 C-241.5631093 51.68771894 -237.03966723 50.48327159 -232.51660156 49.27685547 C-223.19030784 46.79247578 -213.85814882 44.33054228 -204.52528 41.87099838 C-199.80958483 40.62785256 -195.09438571 39.38282812 -190.37915039 38.13793945 C-184.47424415 36.57907216 -178.56929547 35.02036651 -172.66413879 33.46244812 C-158.75666425 29.79329657 -144.85053837 26.11907014 -130.9453125 22.44140625 C-128.99827078 21.92647766 -127.05122895 21.41154948 -125.10418701 20.8966217 C-118.53063053 19.15809622 -111.95709854 17.41947812 -105.38358307 15.68079758 C-103.62343707 15.21524921 -101.86328497 14.74972393 -100.10312653 14.2842226 C-98.37795705 13.8279402 -96.65281343 13.37156005 -94.92769623 12.91508007 C-90.74825138 11.80941687 -86.56827145 10.7058683 -82.38702393 9.60704041 C-74.83102193 7.61957364 -67.28084674 5.61582464 -59.74722576 3.54488277 C-56.28431154 2.59439846 -52.81841786 1.65506342 -49.35219002 0.71674538 C-47.72416615 0.2727684 -46.09758048 -0.17652432 -44.47265434 -0.63170815 C-28.25952304 -5.1709085 -16.1228175 -4.36752256 0 0 Z M-15.64453125 13.70703125 C-15.64453125 35.48703125 -15.64453125 57.26703125 -15.64453125 79.70703125 C-10.94890062 81.04864 -6.68029085 82.14361806 -1.92076111 82.95910645 C-1.28197936 83.06966008 -0.64319761 83.18021371 0.01494116 83.29411745 C2.13443339 83.66000732 4.25481764 84.0204267 6.37524414 84.38085938 C7.90352704 84.64357154 9.43174917 84.90663734 10.95991516 85.17002869 C14.24049063 85.73475065 17.52145921 86.29710929 20.80275154 86.85765076 C25.99347663 87.74452607 31.18314572 88.63747427 36.37266541 89.53137207 C49.25938136 91.75013957 62.14749876 93.9607282 75.03582764 96.17010498 C85.05999817 97.88860103 95.08378682 99.60926394 105.10648912 101.33630514 C110.26320106 102.22461976 115.42064675 103.10850331 120.57869542 103.9890213 C123.78839151 104.53791663 126.9974078 105.09070711 130.20625114 105.64456367 C131.69184346 105.90016417 133.1777136 106.15415601 134.66387939 106.40640068 C136.69625401 106.75158364 138.7275464 107.10256783 140.75868225 107.45495605 C141.89445741 107.64962212 143.03023256 107.84428818 144.20042515 108.04485321 C147.40096736 108.71658046 150.33783408 109.43858347 153.35546875 110.70703125 C155.14575878 114.50244612 155.73015311 116.5579992 154.41796875 120.58203125 C151.54829909 123.53866059 149.41320972 123.37435546 145.35546875 123.70703125 C142.09020138 123.40841007 142.09020138 123.40841007 138.66966248 122.80226135 C138.03496428 122.69285986 137.40026609 122.58345837 136.74633461 122.47074169 C134.6381239 122.10470492 132.5329778 121.72340488 130.42749023 121.34204102 C128.90928387 121.07524017 127.39090728 120.80940646 125.87237549 120.54446411 C122.6115637 119.97342281 119.35205086 119.39561533 116.09338188 118.81247139 C110.93891219 117.8901358 105.78181921 116.98311526 100.62428284 116.07810974 C92.46682024 114.64484999 84.31118489 113.20147989 76.15628439 111.75372022 C61.55144526 109.16101637 46.94431636 106.58130685 32.33541542 104.01159137 C27.21048956 103.1096438 22.08663115 102.20191538 16.9635638 101.2894727 C13.77568027 100.72261394 10.58707691 100.15988699 7.39828491 99.5981636 C5.92176159 99.33713577 4.44554983 99.07433836 2.96968269 98.80962563 C0.95202061 98.44795821 -1.06666319 98.09263529 -3.08570862 97.73878479 C-4.77830984 97.43817564 -4.77830984 97.43817564 -6.50510502 97.13149357 C-10.10751619 96.57304654 -10.10751619 96.57304654 -15.64453125 96.70703125 C-15.64453125 105.61703125 -15.64453125 114.52703125 -15.64453125 123.70703125 C8.30711958 126.75036296 32.25882579 129.79325834 56.21060181 132.83560467 C67.33655491 134.24883006 78.46248979 135.66219868 89.58837891 137.07592773 C99.30711427 138.31085413 109.02588673 139.54548815 118.74470043 140.77979785 C123.87123845 141.43088858 128.99776011 142.08210741 134.12423706 142.73367882 C146.27816148 144.27835645 158.43245284 145.82009633 170.58737183 147.3569293 C173.44117941 147.71787172 176.29493133 148.07925218 179.14868164 148.44064713 C183.87146459 149.03847378 188.59451122 149.63417665 193.31775665 150.22833788 C195.08779041 150.45127323 196.85774547 150.67483432 198.62761688 150.89905488 C201.05263437 151.20613012 203.47793278 151.51088114 205.90332031 151.8150177 C206.61895393 151.90614621 207.33458755 151.99727473 208.07190704 152.09116471 C210.85883352 152.43854295 213.54326731 152.70703125 216.35546875 152.70703125 C216.35546875 147.42703125 216.35546875 142.14703125 216.35546875 136.70703125 C207.03318869 134.4052337 197.70748532 132.6726526 188.22827148 131.15332031 C186.78883179 130.91500488 186.78883179 130.91500488 185.3203125 130.671875 C184.46042725 130.53386475 183.60054199 130.39585449 182.71459961 130.25366211 C180.31184541 129.69692335 178.46090317 128.98636795 176.35546875 127.70703125 C174.95089138 124.89787651 175.10651718 122.81892591 175.35546875 119.70703125 C176.29296875 117.33203125 176.29296875 117.33203125 178.35546875 115.70703125 C185.48687054 115.29258105 192.05440073 116.36638567 199.04296875 117.70703125 C201.04596836 118.08684412 203.04985955 118.4619905 205.0546875 118.83203125 C205.92955811 118.99960938 206.80442871 119.1671875 207.70581055 119.33984375 C210.90017286 119.84429866 210.90017286 119.84429866 216.35546875 119.70703125 C216.35546875 104.85703125 216.35546875 90.00703125 216.35546875 74.70703125 C205.78716235 71.43471333 205.78716235 71.43471333 195.14477539 68.47827148 C194.41702534 68.28641077 193.68927528 68.09455006 192.9394722 67.89687538 C190.5488452 67.26726898 188.15724256 66.64145708 185.765625 66.015625 C184.02249038 65.5572572 182.27942502 65.09862598 180.53642273 64.63975525 C176.79261819 63.65463917 173.04839751 62.6711272 169.30383301 61.68890381 C160.2103671 59.3035161 151.11906731 56.90989119 142.02746964 54.51739502 C138.81239143 53.67143636 135.59722538 52.82581219 132.38204956 51.98022461 C116.40450446 47.77734402 100.43155425 43.55725184 84.4609375 39.328125 C82.73812152 38.87192056 82.73812152 38.87192056 80.98050117 38.40649986 C70.81855997 35.71541049 60.6569456 33.02308784 50.49539185 30.33053589 C45.22254266 28.93337892 39.94959099 27.53660927 34.67658424 26.14004707 C31.84709672 25.39050315 29.01774315 24.6404553 26.18840027 23.8903656 C21.83274188 22.73600221 17.47599973 21.58579417 13.11882019 20.43718719 C10.08518205 19.63561383 7.05296972 18.82874784 4.02062988 18.02227783 C1.91647212 17.46599891 -0.18773415 16.90990341 -2.29199219 16.35400391 C-3.28143955 16.08961706 -4.27088692 15.82523022 -5.29031754 15.55283165 C-6.208018 15.31131182 -7.12571846 15.06979198 -8.07122803 14.82095337 C-8.8831448 14.60553705 -9.69506157 14.39012074 -10.53158188 14.16817665 C-12.77258483 13.6004172 -12.77258483 13.6004172 -15.64453125 13.70703125 Z M-42.75585938 15.74462891 C-43.59030642 15.96334215 -44.42475346 16.1820554 -45.28448677 16.40739632 C-48.0825267 17.14176259 -50.87913935 17.88142281 -53.67578125 18.62109375 C-55.66425721 19.14420456 -57.65281494 19.66700461 -59.64144897 20.18951416 C-65.02250219 21.60442413 -70.40231145 23.02401141 -75.78188324 24.44454193 C-80.26993025 25.629053 -84.75867882 26.81089254 -89.24744225 27.99268532 C-104.04856234 31.88955717 -118.84705246 35.79635769 -133.64453125 39.70703125 C-134.67730698 39.97996002 -135.7100827 40.25288879 -136.77415466 40.53408813 C-161.25566582 47.00419742 -185.73222543 53.49285092 -210.20486546 59.99642849 C-216.20444723 61.59060184 -222.20487874 63.18155334 -228.20550537 64.77178955 C-232.57042566 65.92889799 -236.93487163 67.08778567 -241.2991333 68.24737549 C-243.20727251 68.75405788 -245.11559194 69.26006214 -247.02410889 69.76531982 C-249.52443207 70.42744677 -252.02403745 71.09221095 -254.5234375 71.7578125 C-255.23344406 71.94516464 -255.94345062 72.13251678 -256.67497253 72.32554626 C-260.24659313 73.27679484 -260.24659313 73.27679484 -263.64453125 74.70703125 C-263.64453125 89.55703125 -263.64453125 104.40703125 -263.64453125 119.70703125 C-256.32756849 119.09728435 -249.33925364 118.46614582 -242.16227722 117.1955719 C-241.28716643 117.04503717 -240.41205564 116.89450244 -239.51042634 116.73940605 C-236.61959194 116.24082368 -233.73010865 115.73482824 -230.84057617 115.22875977 C-228.75174444 114.86689008 -226.66283435 114.50547252 -224.57385254 114.14447021 C-218.93086005 113.16787602 -213.2890301 112.1847159 -207.64742827 111.20012403 C-201.73227246 110.1687307 -195.81618053 109.14273301 -189.90022278 108.11595154 C-179.97295994 106.39209473 -170.04643958 104.66401351 -160.12036133 102.93334961 C-148.65025174 100.933524 -137.1790351 98.94015123 -125.70719641 96.95027024 C-114.65623724 95.03326269 -103.60603145 93.11194663 -92.55617714 91.18858147 C-87.85921768 90.37107975 -83.16200741 89.55504174 -78.46459007 88.74017525 C-72.93587059 87.78088289 -67.4078237 86.81780392 -61.88027191 85.85180664 C-59.85322241 85.49817469 -57.82594783 85.14583011 -55.7984333 84.79487419 C-53.02894998 84.31526151 -50.2603258 83.83096104 -47.49186707 83.34547424 C-46.29157208 83.13928832 -46.29157208 83.13928832 -45.0670287 82.92893702 C-44.31852849 82.79668598 -43.57002828 82.66443495 -42.79884624 82.52817631 C-42.16096572 82.4170806 -41.52308519 82.3059849 -40.86587495 82.19152266 C-37.7556023 81.5131493 -34.70543915 80.58157637 -31.64453125 79.70703125 C-31.64453125 57.92703125 -31.64453125 36.14703125 -31.64453125 13.70703125 C-35.53718715 13.70703125 -39.02153526 14.75192521 -42.75585938 15.74462891 Z M-43.99995422 97.87477112 C-44.7314609 98.00050583 -45.46296758 98.12624055 -46.21664113 98.25578541 C-48.66507314 98.67768534 -51.11241968 99.10557467 -53.55981445 99.53344727 C-55.31822597 99.83771621 -57.07670138 100.14161614 -58.8352356 100.44517517 C-63.62119105 101.2724204 -68.40622847 102.10486949 -73.19112039 102.93824124 C-78.23677624 103.81612965 -83.28325117 104.68928442 -88.32963562 105.56297302 C-97.93325881 107.22641459 -107.53612327 108.89419539 -117.13873214 110.56348127 C-127.90430541 112.4347014 -138.6707523 114.30086961 -149.43726218 116.1666919 C-170.81854495 119.87233325 -192.19942637 123.58028703 -213.57752413 127.30426377 C-219.15837704 128.27590449 -224.74007688 129.2425362 -230.32231337 130.20619518 C-234.07926417 130.85524265 -237.83577988 131.50678408 -241.59221685 132.1587981 C-243.37186409 132.46709279 -245.15170366 132.77427951 -246.93174231 133.08030617 C-249.37270137 133.50008509 -251.81296354 133.92370686 -254.25309753 134.34825134 C-254.97723748 134.47178431 -255.70137743 134.59531728 -256.44746101 134.72259367 C-260.15690189 135.35335024 -260.15690189 135.35335024 -263.64453125 136.70703125 C-263.64453125 141.98703125 -263.64453125 147.26703125 -263.64453125 152.70703125 C-249.69868829 151.38473646 -235.80683242 149.78562026 -221.91308594 148.00146484 C-219.82152203 147.73493161 -217.72992767 147.46863733 -215.63830566 147.20256042 C-210.02778926 146.48816882 -204.41769837 145.77048684 -198.8076849 145.05215788 C-192.91966686 144.29881966 -187.03125334 143.54858514 -181.1428833 142.79800415 C-170.02265832 141.38005677 -158.90278546 139.95936771 -147.78304029 138.5376631 C-135.11078222 136.91760139 -122.43812883 135.30064247 -109.76544333 133.68392825 C-83.72470175 130.36171831 -57.68446667 127.03555352 -31.64453125 123.70703125 C-31.64453125 114.79703125 -31.64453125 105.88703125 -31.64453125 96.70703125 C-35.94179174 96.70703125 -39.8044931 97.13382256 -43.99995422 97.87477112 Z M-40.71286011 140.14152431 C-41.49304567 140.23844269 -42.27323124 140.33536107 -43.07705879 140.43521637 C-44.34578237 140.59761302 -44.34578237 140.59761302 -45.64013672 140.76329041 C-46.54742964 140.87692431 -47.45472256 140.99055821 -48.3895092 141.10763556 C-51.4306252 141.48929563 -54.47116129 141.87539199 -57.51171875 142.26147461 C-59.69147507 142.53597205 -61.87126516 142.81020152 -64.05108643 143.08418274 C-69.97278777 143.82930338 -75.89399108 144.5783151 -81.81510162 145.32811427 C-88.00782896 146.11174567 -94.20096305 146.8921498 -100.39404297 147.67298889 C-110.79486696 148.98485252 -121.19538259 150.29914221 -131.59570312 151.61499023 C-142.29462139 152.96861517 -152.99382992 154.31991572 -163.69335938 155.66870117 C-176.58927595 157.29436852 -189.48496451 158.92183265 -202.38043213 160.55105782 C-207.30528212 161.1732536 -212.23021458 161.79479077 -217.1552124 162.41581535 C-222.95346979 163.14707738 -228.751493 163.88016911 -234.54933929 164.61468315 C-236.67896431 164.88419132 -238.8086676 165.15308178 -240.93845367 165.42131424 C-243.84216009 165.78712469 -246.74557517 166.15516632 -249.64892578 166.52378845 C-250.4947415 166.62982216 -251.34055721 166.73585587 -252.21200371 166.84510273 C-252.99218927 166.94462885 -253.77237484 167.04415498 -254.57620239 167.14669704 C-255.24597673 167.23137468 -255.91575108 167.31605231 -256.60582161 167.40329593 C-258.96591696 167.75491261 -261.30472431 168.23906986 -263.64453125 168.70703125 C-263.64453125 173.32703125 -263.64453125 177.94703125 -263.64453125 182.70703125 C-250.85135123 182.1062579 -250.85135123 182.1062579 -238.08203125 181.14453125 C-224.33000162 179.96963796 -224.33000162 179.96963796 -219.64453125 182.01953125 C-217.64453125 183.70703125 -217.64453125 183.70703125 -215.64453125 186.70703125 C-215.43703259 189.26230805 -215.34048089 191.70592846 -215.34375 194.26171875 C-215.33946487 195.00028107 -215.33517975 195.73884338 -215.33076477 196.49978638 C-215.3250254 198.06153337 -215.32451833 199.62330709 -215.32885742 201.18505859 C-215.33201075 203.56654901 -215.30857842 205.94678876 -215.28320312 208.328125 C-215.28092931 209.84765469 -215.28022702 211.3671877 -215.28125 212.88671875 C-215.27204025 213.59520966 -215.26283051 214.30370056 -215.25334167 215.03366089 C-215.29414538 219.42693651 -215.93190164 222.22163182 -218.64453125 225.70703125 C-224.23870596 228.68149488 -231.01670938 228.12491404 -237.20703125 228.26953125 C-239.43757292 228.33073117 -241.6680447 228.39453351 -243.8984375 228.4609375 C-244.88142822 228.48486572 -245.86441895 228.50879395 -246.87719727 228.53344727 C-252.47404425 228.79132804 -258.05824943 229.27731726 -263.64453125 229.70703125 C-263.64453125 275.24703125 -263.64453125 320.78703125 -263.64453125 367.70703125 C-252.42453125 370.34703125 -241.20453125 372.98703125 -229.64453125 375.70703125 C-226.64453125 377.70703125 -226.64453125 377.70703125 -225.83203125 381.08203125 C-225.65242315 384.5544546 -225.63541645 385.95771626 -227.64453125 388.70703125 C-232.42678776 391.09815951 -238.24581135 389.54023008 -243.234375 388.39453125 C-244.42998047 388.12382812 -245.62558594 387.853125 -246.85742188 387.57421875 C-248.08654297 387.28804687 -249.31566406 387.001875 -250.58203125 386.70703125 C-251.83822266 386.42085937 -253.09441406 386.1346875 -254.38867188 385.83984375 C-257.47549875 385.13562469 -260.56023015 384.4222315 -263.64453125 383.70703125 C-263.64453125 389.64703125 -263.64453125 395.58703125 -263.64453125 401.70703125 C-253.29752801 404.98130389 -242.88310389 407.82702717 -232.38671875 410.57421875 C-230.59193347 411.04616816 -228.7972169 411.51837892 -227.00256348 411.99082947 C-223.17289549 412.99851981 -219.34281426 414.00461768 -215.51239014 415.00942993 C-209.44191021 416.60196253 -203.3724522 418.19836389 -197.30322266 419.7956543 C-195.76731759 420.19985989 -195.76731759 420.19985989 -194.20038414 420.61223125 C-192.1164518 421.16067022 -190.03252275 421.70912169 -187.94859695 422.25758553 C-184.78483603 423.09013351 -181.62098856 423.92235187 -178.4571228 424.75450134 C-158.16672138 430.09187718 -137.88397728 435.45798127 -117.60391998 440.8345108 C-115.07584579 441.50460447 -112.54767692 442.1743396 -110.01947021 442.84393311 C-105.9999599 443.90850011 -101.98062965 444.97374435 -97.9614296 446.03948212 C-96.40263124 446.45272959 -94.84378141 446.86578295 -93.28487778 447.27863312 C-83.94289807 449.75308063 -74.6088043 452.254709 -65.28222656 454.78662109 C-62.44321053 455.55542417 -59.60411283 456.32392506 -56.7650032 457.09238243 C-54.04920583 457.82933758 -51.33495174 458.57179431 -48.62069702 459.31440735 C-46.96546454 459.76284732 -45.31016414 460.21103669 -43.65478516 460.65893555 C-42.90055393 460.8671739 -42.14632271 461.07541225 -41.36923599 461.28996086 C-37.96702027 462.20482237 -35.19847477 462.70703125 -31.64453125 462.70703125 C-31.64453125 454.45703125 -31.64453125 446.20703125 -31.64453125 437.70703125 C-39.13219668 435.19578681 -39.13219668 435.19578681 -46.67698669 433.20976257 C-47.78769531 432.95347076 -48.89840393 432.69717896 -50.04277039 432.43312073 C-51.23191544 432.16345993 -52.42106049 431.89379913 -53.64624023 431.6159668 C-54.92252289 431.32280579 -56.19880554 431.02964478 -57.51376343 430.7276001 C-60.99537124 429.92797925 -64.47820229 429.1338117 -67.96128345 428.34063697 C-71.6400568 427.50188155 -75.31765009 426.65798289 -78.99537659 425.81465149 C-85.97919767 424.21400873 -92.96403624 422.61785376 -99.94926459 421.02336484 C-108.5705646 419.0551943 -117.1905611 417.08133885 -125.81054688 415.10742188 C-140.10707338 411.83378835 -140.10707338 411.83378835 -154.40503854 408.56644529 C-157.71682173 407.81026009 -161.02798475 407.05158685 -164.33835506 406.28922558 C-170.63681718 404.84001187 -176.93907149 403.4205794 -183.25784302 402.06240845 C-185.06088567 401.66733078 -185.06088567 401.66733078 -186.90035343 401.26427174 C-189.15293332 400.77144796 -191.4080351 400.28995772 -193.66592312 399.82205486 C-195.15925466 399.49179412 -195.15925466 399.49179412 -196.68275452 399.15486145 C-197.54895951 398.97066052 -198.41516451 398.7864596 -199.30761814 398.59667683 C-202.22592598 397.48569857 -203.69128237 396.12673858 -205.64453125 393.70703125 C-206.14453125 390.14453125 -206.14453125 390.14453125 -205.64453125 386.70703125 C-204.08203125 384.76953125 -204.08203125 384.76953125 -201.64453125 383.70703125 C-196.96959247 383.49769343 -192.85707016 383.91936921 -188.30953979 384.97761536 C-186.46796547 385.40023399 -186.46796547 385.40023399 -184.58918762 385.83139038 C-183.246762 386.14762326 -181.90437117 386.46400392 -180.56201172 386.78051758 C-179.13396738 387.11128188 -177.70576569 387.44136747 -176.27742004 387.77082825 C-172.40976093 388.66495425 -168.54436477 389.5685287 -164.67930746 390.47382569 C-160.62010069 391.4228759 -156.55886103 392.36314569 -152.49783325 393.30436707 C-144.79851487 395.09022662 -137.10103903 396.88389944 -129.40420067 398.6804139 C-120.69312937 400.71327384 -111.98008243 402.73759901 -103.26683593 404.76111186 C-88.3473394 408.22605411 -73.42922301 411.69687974 -58.51304626 415.17608643 C-56.06241875 415.74748674 -53.61155833 416.31788939 -51.16042709 416.88712502 C-48.75243674 417.4486679 -46.3457866 418.01598029 -43.94031143 418.58820152 C-42.18951593 419.00161765 -42.18951593 419.00161765 -40.40335083 419.42338562 C-39.36567125 419.67058696 -38.32799168 419.9177883 -37.25886726 420.17248058 C-34.5994041 420.80719342 -34.5994041 420.80719342 -31.64453125 420.70703125 C-31.64306469 419.92219738 -31.64159813 419.13736351 -31.64008713 418.3287468 C-31.60305335 399.24175885 -31.54408433 380.15495443 -31.46062851 361.06811142 C-31.42080032 351.83788507 -31.38842708 342.60774445 -31.37353516 333.37744141 C-31.36053818 325.3333386 -31.33362372 317.28942412 -31.28991818 309.24542737 C-31.26725919 304.98520512 -31.25162321 300.72521553 -31.2526474 296.46492767 C-31.25339141 292.45602992 -31.23554578 288.44764733 -31.20336342 284.43888283 C-31.19483581 282.9667095 -31.19313386 281.49447858 -31.19872856 280.02229118 C-31.2053458 278.01367772 -31.1851272 276.00502907 -31.16351318 273.996521 C-31.15798243 272.30963984 -31.15798243 272.30963984 -31.15233994 270.58868027 C-30.52810331 267.04634056 -29.47816775 265.86100067 -26.64453125 263.70703125 C-23.64453125 263.20703125 -23.64453125 263.20703125 -20.64453125 263.70703125 C-17.81089475 265.86100067 -16.76095919 267.04634056 -16.13672256 270.58868027 C-16.13303539 271.71326771 -16.12934822 272.83785515 -16.12554932 273.996521 C-16.11163651 275.28938522 -16.09772369 276.58224945 -16.08338928 277.91429138 C-16.08810226 279.34488041 -16.09319621 280.77546823 -16.09863281 282.20605469 C-16.08989784 283.71402554 -16.07941232 285.22198713 -16.06730652 286.72993469 C-16.03941618 290.82261609 -16.03604249 294.91499551 -16.03702641 299.00775814 C-16.03389989 303.28529075 -16.00828717 307.56268683 -15.98504639 311.84014893 C-15.94446273 319.93964561 -15.92414014 328.03906174 -15.91107249 336.13864446 C-15.89521044 345.35991584 -15.85679819 354.58104997 -15.81647921 363.8022418 C-15.73404792 382.77046158 -15.67997601 401.73866842 -15.64453125 420.70703125 C-5.88331761 419.25102995 3.68133833 417.11669394 13.28344727 414.875 C14.95919562 414.48667676 16.63501981 414.0986806 18.31091309 413.71098328 C22.84057962 412.66212925 27.36917601 411.60872155 31.89758801 410.55446625 C36.69078523 409.43940241 41.48496711 408.32858776 46.27903748 407.21728516 C55.39375817 405.10374846 64.50759371 402.98642036 73.62111658 400.86772537 C83.82363425 398.49605662 94.02713586 396.12863556 104.23072541 393.76158333 C116.75586656 390.85587113 129.28078991 387.94922085 141.80506897 385.03979492 C142.94748886 384.77440776 142.94748886 384.77440776 144.11298794 384.50365925 C168.19472549 378.90869961 192.27493191 373.3071561 216.35546875 367.70703125 C216.35546875 322.16703125 216.35546875 276.62703125 216.35546875 229.70703125 C207.81378138 229.04997838 199.35862516 228.50184463 190.80859375 228.2421875 C188.47655129 228.16374404 186.14452033 228.08495795 183.8125 228.00585938 C180.19655113 227.88601678 176.58057813 227.7687652 172.96435547 227.6574707 C169.43297238 227.54745803 165.90207489 227.42684326 162.37109375 227.3046875 C160.76297821 227.2592556 160.76297821 227.2592556 159.12237549 227.21290588 C143.67826597 226.65694543 143.67826597 226.65694543 138.82177734 222.58007812 C136.95287915 218.91820768 136.81480169 215.75548908 136.89453125 211.73828125 C136.89544769 210.98035278 136.89636414 210.22242432 136.89730835 209.44152832 C136.9033303 207.84458119 136.91903414 206.24764461 136.94384766 204.65087891 C136.98035319 202.214743 136.9848667 199.78013096 136.984375 197.34375 C136.99420766 195.78774735 137.00586531 194.23175495 137.01953125 192.67578125 C137.0217569 191.95169067 137.02398254 191.2276001 137.02627563 190.48156738 C137.10055657 186.49842098 137.37583141 183.21055016 139.35546875 179.70703125 C142.94856767 178.50933161 146.22698212 178.51543778 149.96875 178.51953125 C150.75300858 178.52033691 151.53726715 178.52114258 152.34529114 178.52197266 C163.44714571 178.63132215 174.49146666 179.72621147 185.54296875 180.70703125 C188.84494735 180.99489481 192.14709368 181.28053096 195.44953918 181.56298828 C197.4844194 181.73754207 199.51901959 181.91540393 201.55326843 182.09716797 C202.47565811 182.17725098 203.39804779 182.25733398 204.34838867 182.33984375 C205.14903244 182.41090332 205.94967621 182.48196289 206.77458191 182.55517578 C209.96309748 182.7427832 213.16143868 182.70703125 216.35546875 182.70703125 C216.35546875 178.08703125 216.35546875 173.46703125 216.35546875 168.70703125 C190.13285168 165.11982029 163.89227697 161.69213272 137.63688397 158.35376334 C134.56329995 157.96289056 131.48976426 157.57163974 128.4162426 157.18027687 C117.65912284 155.81059422 106.90179689 154.44254363 96.14428711 153.07592773 C86.15769748 151.80719689 76.17161885 150.53449576 66.18574959 149.26010865 C57.54497838 148.15757582 48.90384481 147.05791466 40.26242584 145.9604705 C35.12837593 145.30839805 29.99448331 144.6551434 24.86096382 143.99890709 C20.06343463 143.38570755 15.26546582 142.77607354 10.46713257 142.16919899 C8.71015437 141.94636253 6.95333803 141.72224558 5.19669914 141.49674988 C2.79928772 141.1892006 0.40133414 140.88628582 -1.99681091 140.58451843 C-2.68948466 140.49454627 -3.38215841 140.40457411 -4.09582227 140.31187552 C-7.97033772 139.83006401 -11.74122017 139.62215115 -15.64453125 139.70703125 C-15.64817688 140.87578796 -15.65182251 142.04454468 -15.65557861 143.24871826 C-15.69249645 154.25531585 -15.75023394 165.26163282 -15.82843399 176.26801682 C-15.86796777 181.92673667 -15.90012733 187.58529954 -15.91552734 193.24414062 C-15.93065499 198.7037727 -15.96503137 204.16297333 -16.01284027 209.62241364 C-16.02769427 211.7068024 -16.03557456 213.79125275 -16.0364151 215.87569427 C-16.03877441 218.79227367 -16.06577052 221.70765065 -16.09863281 224.62402344 C-16.09108727 225.92090591 -16.09108727 225.92090591 -16.08338928 227.24398804 C-16.18527234 233.07621246 -16.18527234 233.07621246 -18.4911499 236.24346924 C-21.44377885 238.25024596 -23.14618511 238.29008894 -26.64453125 237.70703125 C-29.65617908 235.44279967 -30.54857771 234.2163231 -31.25390625 230.47265625 C-31.3003125 229.3125 -31.34671875 228.15234375 -31.39453125 226.95703125 C-31.45125 225.7865625 -31.50796875 224.61609375 -31.56640625 223.41015625 C-31.60507812 222.07210937 -31.60507812 222.07210937 -31.64453125 220.70703125 C-32.86035889 220.75303467 -34.07618652 220.79903809 -35.32885742 220.84643555 C-39.84776435 221.01323903 -44.36714696 221.15926071 -48.88696289 221.29907227 C-50.84158146 221.36242764 -52.79602685 221.43138777 -54.75024414 221.50610352 C-57.56239294 221.61264055 -60.37455226 221.69888026 -63.1875 221.78125 C-64.05851852 221.81860764 -64.92953705 221.85596527 -65.82695007 221.89445496 C-70.59450674 222.01210702 -73.86548375 221.9658931 -77.64453125 218.70703125 C-81.13016736 214.51779364 -81.08315859 210.30844296 -81.04296875 205.08203125 C-81.04727402 203.84525635 -81.04727402 203.84525635 -81.05166626 202.58349609 C-81.05370197 200.84537059 -81.04820665 199.10722192 -81.03564453 197.36914062 C-81.01958325 194.71562246 -81.03550934 192.0636273 -81.0546875 189.41015625 C-81.05270498 187.71744457 -81.04886112 186.02473383 -81.04296875 184.33203125 C-81.04904144 183.54231934 -81.05511414 182.75260742 -81.06137085 181.93896484 C-81.00309265 177.35217852 -80.61258884 174.27421328 -77.64453125 170.70703125 C-73.7084675 167.57715972 -69.83845376 167.12210757 -64.96484375 166.79296875 C-64.23385468 166.73299713 -63.5028656 166.67302551 -62.74972534 166.61123657 C-60.42376331 166.42276911 -58.09692406 166.25182239 -55.76953125 166.08203125 C-53.44970058 165.90139068 -51.1301886 165.71713605 -48.8107605 165.53140259 C-47.37186595 165.41741802 -45.93268406 165.30698262 -44.49319458 165.20077515 C-40.15648847 164.87225175 -35.9672055 164.32455614 -31.64453125 163.70703125 C-31.64453125 155.78703125 -31.64453125 147.86703125 -31.64453125 139.70703125 C-34.83966566 139.70703125 -37.60328559 139.74914356 -40.71286011 140.14152431 Z M-49.76953125 180.64453125 C-50.85363281 180.73154297 -51.93773437 180.81855469 -53.0546875 180.90820312 C-54.09753906 180.99521484 -55.14039063 181.08222656 -56.21484375 181.171875 C-57.63434326 181.28970337 -57.63434326 181.28970337 -59.08251953 181.40991211 C-61.91011141 181.68193687 -61.91011141 181.68193687 -65.64453125 182.70703125 C-65.64453125 190.62703125 -65.64453125 198.54703125 -65.64453125 206.70703125 C-61.44512585 206.58697526 -57.24597403 206.46425322 -53.046875 206.3347168 C-51.61918737 206.29147807 -50.19145171 206.2497954 -48.76367188 206.2097168 C-46.70818629 206.15174523 -44.65293997 206.0881295 -42.59765625 206.0234375 C-40.74382324 205.96845093 -40.74382324 205.96845093 -38.85253906 205.91235352 C-35.4785156 205.79308053 -35.4785156 205.79308053 -31.64453125 204.70703125 C-31.64453125 196.45703125 -31.64453125 188.20703125 -31.64453125 179.70703125 C-37.74766892 179.70703125 -43.69501238 180.13165271 -49.76953125 180.64453125 Z M152.35546875 193.70703125 C152.35546875 199.64703125 152.35546875 205.58703125 152.35546875 211.70703125 C159.38048283 211.99522123 166.40562707 212.27991833 173.4309082 212.56152344 C175.81571172 212.65759258 178.20047847 212.75457938 180.58520508 212.85253906 C184.03327074 212.99401297 187.48145968 213.13207301 190.9296875 213.26953125 C191.97815353 213.31327881 193.02661957 213.35702637 194.1068573 213.40209961 C201.5280426 213.69340662 208.92850985 213.74251388 216.35546875 213.70703125 C216.35546875 208.75703125 216.35546875 203.80703125 216.35546875 198.70703125 C210.45591057 198.15012596 204.55583977 197.5990988 198.65527344 197.05297852 C196.65773535 196.86732836 194.66033311 196.68020919 192.66308594 196.49145508 C179.22904863 195.22313585 165.83774062 194.29241326 152.35546875 193.70703125 Z M-263.64453125 198.70703125 C-263.64453125 203.65703125 -263.64453125 208.60703125 -263.64453125 213.70703125 C-252.60913108 213.83840506 -241.65993939 213.32204905 -230.64453125 212.70703125 C-230.64453125 207.42703125 -230.64453125 202.14703125 -230.64453125 196.70703125 C-241.78292885 196.44183131 -252.58614604 197.47219661 -263.64453125 198.70703125 Z M208.82756042 385.18280029 C208.1365231 385.34175915 207.44548578 385.50071801 206.73350793 385.6644938 C204.39786225 386.20204476 202.06258222 386.74116786 199.72729492 387.28027344 C198.05786764 387.66483261 196.38841825 388.04929586 194.71894836 388.43367004 C190.15345082 389.4851103 185.58826824 390.53791238 181.02313781 391.59094524 C176.20028061 392.70318858 171.37714019 393.81420242 166.55403137 394.925354 C157.350992 397.04575774 148.14821376 399.1672926 138.94552451 401.28921533 C131.721527 402.95485618 124.49740704 404.61996495 117.27319336 406.28466797 C115.76671842 406.63181154 115.76671842 406.63181154 114.22980964 406.98596811 C110.19940995 407.91469885 106.16900619 408.84341189 102.13859963 409.77211285 C91.30761808 412.26786074 80.47679169 414.76427739 69.64645386 417.26281738 C65.86896469 418.13422706 62.09146769 419.00560277 58.31396484 419.87695312 C57.40202039 420.08731862 56.49007595 420.29768412 55.55049682 420.51442432 C44.37447507 423.09222305 33.19685649 425.66287032 22.01652801 428.22192526 C17.68263599 429.2142787 13.34926638 430.2089121 9.01580238 431.20313263 C5.75715443 431.94954355 2.49764541 432.69210445 -0.76191711 433.43450928 C-2.64560681 433.8666115 -4.52925195 434.29890803 -6.4128418 434.73144531 C-7.67163304 435.01609524 -7.67163304 435.01609524 -8.95585442 435.30649567 C-12.60030278 435.89010927 -12.60030278 435.89010927 -15.64453125 437.70703125 C-15.7319077 439.56072736 -15.75151278 441.41770666 -15.7421875 443.2734375 C-15.73896484 444.39814453 -15.73574219 445.52285156 -15.73242188 446.68164062 C-15.72404297 447.86564453 -15.71566406 449.04964844 -15.70703125 450.26953125 C-15.70251953 451.45740234 -15.69800781 452.64527344 -15.69335938 453.86914062 C-15.681528 456.81515351 -15.66504412 459.76106806 -15.64453125 462.70703125 C-7.79707719 462.0438749 -0.35524704 459.90780664 7.21875 457.859375 C8.72829039 457.45544287 10.23796854 457.05202529 11.74777222 456.64907837 C15.00601304 455.77851838 18.26338396 454.90480052 21.52011108 454.02859497 C29.48206029 451.88671032 37.44833689 449.76099884 45.41401863 447.6330471 C48.23751597 446.87857285 51.06083728 446.12344248 53.88414001 445.36824036 C67.58328674 441.70540671 81.29093048 438.07553935 95.00390625 434.46484375 C95.98065811 434.20765942 96.95740997 433.95047508 97.96376038 433.68549728 C102.87421255 432.39273253 107.7847963 431.10046829 112.69543457 429.80841064 C139.78345388 422.68059777 166.86822813 415.54147549 193.91796875 408.26953125 C194.999039 407.97958282 196.08010925 407.6896344 197.19393921 407.39089966 C200.12476225 406.60423409 203.05474798 405.81454384 205.984375 405.0234375 C206.82221527 404.79865723 207.66005554 404.57387695 208.52328491 404.34228516 C212.53447027 403.28657503 212.53447027 403.28657503 216.35546875 401.70703125 C216.35546875 395.76703125 216.35546875 389.82703125 216.35546875 383.70703125 C213.88085382 383.70703125 211.20473168 384.6348997 208.82756042 385.18280029 Z " fill="#000000" transform="translate(279.64453125,18.29296875)"/>
<path d="M0 0 C1.31467758 0.10623688 2.62935516 0.21247375 3.98387146 0.32192993 C6.74820866 0.54594813 9.51224796 0.77328291 12.27612305 1.00292969 C15.79085565 1.29460241 19.30627043 1.57688252 22.82197666 1.85654259 C26.2151098 2.12798803 29.60750296 2.40821717 33 2.6875 C34.87227013 2.83606949 34.87227013 2.83606949 36.78236389 2.98764038 C40.17253976 3.27359441 43.55197385 3.60342318 46.93359375 3.9765625 C47.89441864 4.08043274 48.85524353 4.18430298 49.84518433 4.2913208 C50.71861481 4.42028748 51.59204529 4.54925415 52.49194336 4.68212891 C53.23633163 4.78651276 53.98071991 4.89089661 54.74766541 4.9984436 C58.06864515 6.48445436 60.09455132 8.91513758 61.93359375 11.9765625 C62.41745376 14.86131483 62.61221763 17.14935367 62.56851196 20.02270508 C62.57631192 20.81580739 62.58411187 21.6089097 62.59214818 22.42604542 C62.61203969 25.07487203 62.59631555 27.72225733 62.58056641 30.37109375 C62.58734381 32.27355791 62.59624764 34.17601551 62.6071167 36.07846069 C62.6299019 41.23966445 62.6210768 46.40036821 62.60522127 51.56158066 C62.59255833 56.96400038 62.60430349 62.36637742 62.6121521 67.76879883 C62.62124749 76.84106122 62.60926357 85.91312007 62.58544922 94.98535156 C62.55823825 105.47262668 62.56705248 115.95941577 62.59458125 126.44667912 C62.61727438 135.4523818 62.62047137 144.4579382 62.6073879 153.46366024 C62.59959455 158.84170943 62.59854872 164.2195302 62.61507034 169.5975647 C62.6295187 174.65387334 62.61948641 179.70955565 62.59059906 184.76579666 C62.58399024 186.62093694 62.58588243 188.47612997 62.59691238 190.33124924 C62.61058791 192.86501655 62.59342965 195.39678014 62.56851196 197.93041992 C62.57966557 198.66369412 62.59081918 199.39696833 62.60231078 200.15246296 C62.49412557 205.82796437 60.82112388 208.13689625 56.93359375 211.9765625 C53.22143154 213.97509991 49.28243688 214.61247232 45.15893555 215.39697266 C44.49805939 215.52406113 43.83718323 215.6511496 43.15628052 215.78208923 C40.98275306 216.19851058 38.8078938 216.60740348 36.6328125 217.015625 C35.11208212 217.30399489 33.59139696 217.5926034 32.070755 217.88143921 C28.88643485 218.48496561 25.70140795 219.08458139 22.51586914 219.68164062 C18.44927285 220.44430508 14.384902 221.21817252 10.32103252 221.99521828 C7.18114926 222.59401353 4.04001049 223.18600031 0.89847755 223.77607346 C-0.59974035 224.05847013 -2.09753476 224.34312393 -3.59487343 224.63014603 C-22.29744536 228.20721179 -22.29744536 228.20721179 -27.87890625 225.7265625 C-31.41337938 222.898984 -33.26386773 220.42475223 -34.06640625 215.9765625 C-34.1625934 213.22915903 -34.20556497 210.50735463 -34.20011902 207.76005554 C-34.20238458 206.92444857 -34.20465013 206.0888416 -34.20698434 205.2279132 C-34.21332214 202.42365666 -34.21249511 199.61944847 -34.21166992 196.81518555 C-34.21466157 194.80627378 -34.21806411 192.79736258 -34.22184753 190.78845215 C-34.23069162 185.32764629 -34.23302583 179.8668561 -34.23366332 174.40604377 C-34.23461236 169.84840918 -34.23829063 165.29077824 -34.24183542 160.73314506 C-34.24998168 149.98005381 -34.25241951 139.22697093 -34.25170898 128.47387695 C-34.25110827 117.38014532 -34.26165844 106.28646233 -34.27745265 95.192743 C-34.29052744 85.66991182 -34.2958929 76.14709653 -34.29525357 66.62425643 C-34.29499855 60.93601225 -34.29785212 55.24781128 -34.30843163 49.55957603 C-34.31811144 44.20883639 -34.31819254 38.85818128 -34.31091499 33.50743866 C-34.30986898 31.54466694 -34.31223302 29.58188997 -34.31827545 27.61912727 C-34.32599602 24.93732562 -34.32135007 22.25581578 -34.31364441 19.57402039 C-34.31878797 18.79949435 -34.32393154 18.02496832 -34.32923096 17.22697181 C-34.29314784 11.53402232 -33.85107701 6.16422343 -30.12890625 1.6015625 C-22.75759842 -4.20613458 -8.67661945 -0.71781891 0 0 Z M-18.06640625 14.9765625 C-18.06640625 79.3265625 -18.06640625 143.6765625 -18.06640625 209.9765625 C-10.58529949 209.1547244 -10.58529949 209.1547244 -3.21118164 207.9609375 C-2.15721695 207.7640332 -1.10325226 207.56712891 -0.01734924 207.36425781 C1.08923538 207.15381836 2.19582001 206.94337891 3.3359375 206.7265625 C4.49485001 206.50838867 5.65376251 206.29021484 6.84779358 206.06542969 C9.28108265 205.60646218 11.71405682 205.14582235 14.14672852 204.68359375 C17.8827344 203.97435265 21.61998791 203.2719848 25.35742188 202.5703125 C27.72533759 202.12280401 30.09317886 201.67490137 32.4609375 201.2265625 C33.58169174 201.01612305 34.70244598 200.80568359 35.85716248 200.58886719 C36.88906204 200.39196289 37.92096161 200.19505859 38.98413086 199.9921875 C39.8940831 199.81977539 40.80403534 199.64736328 41.74156189 199.46972656 C43.96224694 199.06223025 43.96224694 199.06223025 45.93359375 197.9765625 C45.93359375 139.2365625 45.93359375 80.4965625 45.93359375 19.9765625 C13.97055127 16.58804486 13.97055127 16.58804486 -18.06640625 14.9765625 Z " fill="#000000" transform="translate(321.06640625,186.0234375)"/>
<path d="M0 0 C4.48629019 4.60754128 4.56753271 9.80931085 4.578125 16.00390625 C4.58003845 16.71602768 4.5819519 17.42814911 4.58392334 18.16184998 C4.58527715 19.65860348 4.58163718 21.15536904 4.57324219 22.65209961 C4.5625148 24.9343514 4.57317254 27.21581902 4.5859375 29.49804688 C4.58461607 30.95833506 4.58205402 32.41862276 4.578125 33.87890625 C4.57586914 35.19705322 4.57361328 36.5152002 4.57128906 37.87329102 C4.23672688 42.4002961 3.33071704 45.1925544 0.375 48.625 C-3.56567284 51.9686012 -8.06680577 51.69995044 -13 51.9375 C-14.27713867 51.99901245 -14.27713867 51.99901245 -15.58007812 52.06176758 C-23.27080694 52.38761161 -30.9631538 52.51171007 -38.66000366 52.55123901 C-40.66701167 52.56238621 -42.67396646 52.58205255 -44.6809082 52.60180664 C-45.9205835 52.60301514 -47.16025879 52.60422363 -48.4375 52.60546875 C-49.54609375 52.60957764 -50.6546875 52.61368652 -51.796875 52.61791992 C-54.75585815 52.36925537 -56.29366901 52.10434774 -58.6875 50.375 C-62.04339328 46.26395949 -62.12746641 42.28887581 -62.0859375 37.1875 C-62.08880768 36.40737549 -62.09167786 35.62725098 -62.09463501 34.82348633 C-62.09667003 33.17951732 -62.09117952 31.5355238 -62.07861328 29.89160156 C-62.06255065 27.38290999 -62.07848004 24.87582929 -62.09765625 22.3671875 C-62.09567372 20.76562146 -62.09182983 19.16405642 -62.0859375 17.5625 C-62.09201019 16.81653564 -62.09808289 16.07057129 -62.1043396 15.30200195 C-62.0441792 10.82181428 -61.68423679 7.78410369 -58.6875 4.375 C-53.8167277 1.7021423 -49.33494836 0.82840184 -43.8046875 0.42578125 C-43.06856232 0.36343796 -42.33243713 0.30109467 -41.57400513 0.23686218 C-40.02310349 0.10790572 -38.47171524 -0.01531545 -36.91992188 -0.13305664 C-34.58856172 -0.31051622 -32.25930603 -0.50617819 -29.9296875 -0.70507812 C-4.80086825 -2.78374484 -4.80086825 -2.78374484 0 0 Z M-27 15.3125 C-28.69286133 15.44301758 -28.69286133 15.44301758 -30.41992188 15.57617188 C-31.51498047 15.66318359 -32.61003906 15.75019531 -33.73828125 15.83984375 C-34.73512939 15.918396 -35.73197754 15.99694824 -36.7590332 16.07788086 C-39.75107171 16.38144992 -42.72101992 16.88058665 -45.6875 17.375 C-45.6875 23.645 -45.6875 29.915 -45.6875 36.375 C-28.66073066 36.53341993 -28.66073066 36.53341993 -11.6875 35.375 C-11.6875 28.445 -11.6875 21.515 -11.6875 14.375 C-16.80664146 14.375 -21.89922695 14.90593754 -27 15.3125 Z " fill="#000000" transform="translate(160.6875,191.625)"/>
<path d="M0 0 C4.0743356 0.84881992 5.54405875 2.30225596 8 5.625 C8.625 8.625 8.625 8.625 8 11.625 C5.54405875 14.94774404 4.0743356 16.40118008 0 17.25 C-4.0743356 16.40118008 -5.54405875 14.94774404 -8 11.625 C-8.625 8.625 -8.625 8.625 -8 5.625 C-5.54405875 2.30225596 -4.0743356 0.84881992 0 0 Z " fill="#000000" transform="translate(82,211.375)"/>
<path d="M0 0 C3.5 0.8125 3.5 0.8125 5.4375 1.875 C7.19366901 5.07742585 7.12026592 8.30940726 6.5 11.8125 C4.9375 14.3125 4.9375 14.3125 2.5 15.8125 C-1.48452984 16.38171855 -3.55493748 16.48399179 -6.875 14.125 C-8.71921807 11.50053583 -9.42169023 10.02320053 -9.5 6.8125 C-7.32755651 2.1417465 -5.42336756 -0.29053755 0 0 Z " fill="#000000" transform="translate(182.5,206.1875)"/>
<path d="M0 0 C2.39216609 1.5947774 2.88287964 2.65764819 3.8125 5.375 C4.03751456 8.5252038 3.49549186 10.23334006 2 13 C-1.7205836 15.48038907 -3.59796571 15.46337203 -8 15 C-10.4375 13.5 -10.4375 13.5 -12 11 C-12.61014545 8.1910285 -12.65360928 5.80363979 -12 3 C-8.3655827 -1.51548816 -5.40521016 -1.50144727 0 0 Z " fill="#000000" transform="translate(404,213)"/>
</svg>
